<svg xmlns="http://www.w3.org/2000/svg" xmlns:xlink="http://www.w3.org/1999/xlink" width="640" height="640" viewBox="0 0 640 640" role="img" artist="Katerina Limpitsouni" copyright="unDraw" source="https://undraw.co/"><defs><clipPath id="a-48"><circle cx="320" cy="320" r="320" transform="translate(1020 86)" fill="none" stroke="#707070" stroke-width="1"></circle></clipPath></defs><g transform="translate(-572 -192)"><circle cx="320" cy="320" r="320" transform="translate(572 192)" fill="#f2f2f2"></circle><g transform="translate(-448 106)" clip-path="url(#a-48)"><g transform="translate(16312.887 -22215.375)"><path d="M453.334,643.55c4.1-1.563,8.617-1,13.012-.406,14.145,1.933,28.5,3.915,41.61,9.565,6.155,2.634,12.015,6.155,16.176,11.338,3.693,4.666,5.847,10.378,7.891,16L536.75,693c1.8,4.924,3.619,9.947,4.124,15.179,1.477,15.5-9.122,30.112-22.454,38.163s-29.028,10.919-44.318,13.923-30.641,6.328-45.869,9.849a184.686,184.686,0,0,1-21.58,4.247c-16.3,1.847-33.337-.874-48.824,4.518-6.155,2.154-12.2,5.355-18.589,6.845a115.6,115.6,0,0,1-12.852,1.957l-29.311,3.348a159.88,159.88,0,0,1-17.973,1.379c-12.8,0-25.4-3.028-37.83-6.057a9.563,9.563,0,0,1-3.693-1.49c-1.97-1.551-2.4-4.3-2.684-6.783q-1.884-16.508-3.3-33.054c-.3-3.582-.517-7.46,1.44-10.476,2.462-3.693,7.263-4.85,11.646-5.564a303.938,303.938,0,0,1,56.235-3.9c7.152-7.152,18.946-7.189,28.314-11.079a84.237,84.237,0,0,0,9.984-5.429,130.492,130.492,0,0,1,54.819-17.321,51.027,51.027,0,0,0,11.215-1.6c7.251-2.253,13.862-8.384,21.309-6.882.923-2.548,1.563-5.958,3.693-7.706,1.059-.9,2.364-1.5,3.336-2.462,2.056-2.081,2.241-5.355,1.933-8.26s-1-5.884-.246-8.716a12.048,12.048,0,0,1,1.366-3.041C440.334,646.209,445.91,642.934,453.334,643.55Z" transform="translate(-15252.18 22239.615)" fill="#464353"></path><path d="M453.334,643.55c4.1-1.563,8.617-1,13.012-.406,14.145,1.933,28.5,3.915,41.61,9.565,6.155,2.634,12.015,6.155,16.176,11.338,3.693,4.666,5.847,10.378,7.891,16L536.75,693c1.8,4.924,3.619,9.947,4.124,15.179,1.477,15.5-9.122,30.112-22.454,38.163s-29.028,10.919-44.318,13.923-30.641,6.328-45.869,9.849a184.686,184.686,0,0,1-21.58,4.247c-16.3,1.847-33.337-.874-48.824,4.518-6.155,2.154-12.2,5.355-18.589,6.845a115.6,115.6,0,0,1-12.852,1.957l-29.311,3.348a159.88,159.88,0,0,1-17.973,1.379c-12.8,0-25.4-3.028-37.83-6.057a9.563,9.563,0,0,1-3.693-1.49c-1.97-1.551-2.4-4.3-2.684-6.783q-1.884-16.508-3.3-33.054c-.3-3.582-.517-7.46,1.44-10.476,2.462-3.693,7.263-4.85,11.646-5.564a303.938,303.938,0,0,1,56.235-3.9c7.152-7.152,18.946-7.189,28.314-11.079a84.237,84.237,0,0,0,9.984-5.429,130.492,130.492,0,0,1,54.819-17.321,51.027,51.027,0,0,0,11.215-1.6c7.251-2.253,13.862-8.384,21.309-6.882.923-2.548,1.563-5.958,3.693-7.706,1.059-.9,2.364-1.5,3.336-2.462,2.056-2.081,2.241-5.355,1.933-8.26s-1-5.884-.246-8.716a12.048,12.048,0,0,1,1.366-3.041C440.334,646.209,445.91,642.934,453.334,643.55Z" transform="translate(-15252.18 22239.615)" opacity="0.05"></path><ellipse cx="176.041" cy="49.242" rx="176.041" ry="49.242" transform="translate(-15118.576 22879.654)" fill="#464353"></ellipse><ellipse cx="176.041" cy="49.242" rx="176.041" ry="49.242" transform="translate(-15118.576 22879.654)" opacity="0.1"></ellipse><path d="M343.044,488.169a54.769,54.769,0,0,1-28.24,25.655,70.883,70.883,0,0,1-22.417,4.259c-8.359.382-16.89-.16-24.744-3.016-10.538-3.816-19.291-11.621-25.852-20.719s-11.079-19.488-15.007-29.964c-2.068-5.453-4.038-11.264-3.065-17.025,6.34-1.44,13.283-3.558,16.558-9.184,2.795-4.826,2.019-10.612.406-16.127-.456-1.563-.985-3.115-1.514-4.6-1.231-3.57-5.478-10.353-2.462-13.406,1.884-1.933,9.775-2.918,12.5-4.173,8.384-3.866,16.114-9.454,25.323-11.289,7.965-1.588,16.188-.1,24.141,1.551a7.94,7.94,0,0,1,2.979,1.071,7.165,7.165,0,0,1,2.216,3.324c2.265,5.515,3.595,11.609,5.417,17.358,1.9,6.02,4.333,11.67,8.9,15.942,3.558,3.336,8.088,5.429,12.52,7.46l10.907,5a14.341,14.341,0,0,1,5.158,3.336,13.061,13.061,0,0,1,2.462,6.7,62.562,62.562,0,0,1-6.18,37.855Z" transform="translate(-15254.016 22180.777)" fill="#ed9da0"></path><circle cx="56.629" cy="56.629" r="56.629" transform="translate(-15042.251 22494.334)" fill="#ed9da0"></circle><path d="M454.764,545.155l-4.653-28.191c-2.351-14.145-4.776-28.56-11.35-41.3-4.321-8.346-29.927-23.415-32.007-25.581-5.367-5.564-32.844-15.684-38.63-19.3s-12.988-6.155-19.389-3.841c-1.034,11.018-2.13,22.282-6.808,32.315a48.356,48.356,0,0,1-72.952,18.17c-10.969-8.26-18-21-21.273-34.334-.8-3.25-1.711-6.98-4.7-8.47-3.238-1.625-7.128.345-9.848,2.733-4.924,4.419-62.144,33.128-64.655,36.661s-3.693,7.9-4.924,12.138c13.455,29.964,25.766,59.965,39.221,89.929a7.669,7.669,0,0,1,.972,3.693,9,9,0,0,1-1.674,3.693c-6.6,10.6-6.389,23.932-5.663,36.39s1.613,25.618-3.952,36.784c-1.514,3.065-3.484,5.872-4.924,8.938-3.373,6.943-4.592,29.151-2.622,36.611H463.246c-5.306-14.588-3.287-43.862-2.179-59.349.776-10.833-1.231-21.654-2.093-32.488C457.09,588.229,458.42,567.24,454.764,545.155Z" transform="translate(-15267.854 22189.594)" fill="#EAB308"></path><path d="M146.327,552.144a43.576,43.576,0,0,0-.148,10.747l3.533,50.806c.332,4.789.665,9.565,1.108,14.342.849,9.27,2.117,18.466,3.693,27.649a4.924,4.924,0,0,0,5.047,4.789c15.573,3.3,31.663,3.164,47.556,2.265,24.252-1.354,48.467-4.444,72.755-3.915,6.254.135,13.542,0,17.333-4.924s1.588-12.889-3.361-16.866-11.67-4.924-18.023-4.924c-8.408-.086-16.816,1.108-25.2.616-7.694-.456-15.216-2.314-22.676-4.173l-20.928-5.207c.8-6.34,3.213-12.31,5.5-18.33,4.112-10.673,7.953-21.7,8.026-33.14s-4.235-23.464-13.6-30.013c-7.706-5.38-17.629-6.377-27.022-6.155-6.832.2-18.638-1.44-24.88,1.231C150.106,539.107,147.25,547.306,146.327,552.144Z" transform="translate(-15271.933 22214.855)" fill="#ed9da0"></path><path d="M224.916,658.524c0,1.231-1.933,0-2.105-1.317-1.354-9.959-9.258-18.17-18.466-22.159s-19.7-4.2-29.668-3.25c-15.08,1.428-32.007,7.2-37.523,21.3-1.3,3.3-1.9,6.869-3.5,10.033-1.773,3.472-4.666,6.242-6.586,9.615-3.312,5.835-3.447,12.988-2.253,19.586,3.213,17.6,15.253,32.66,29.841,43.087s31.638,16.656,48.639,22.27a843.51,843.51,0,0,0,137.878,32.931c7.583,1.145,15.24,2.2,22.5,4.641,6.5,2.179,12.581,5.441,18.934,8,14.773,5.934,30.666,8.051,46.411,10.132,2.684.345,5.761.591,7.743-1.231,2.561-2.376,1.711-6.512.985-9.922a53.366,53.366,0,0,1,6.291-37.867c2.635-4.432,6.057-8.974,5.564-14.108-.591-5.983-6.549-10.218-12.483-11.178s-11.966.456-17.924,1.231c-2.056.271-4.3.443-6.094-.6a12.172,12.172,0,0,1-2.388-2.117,27,27,0,0,0-31.441-4.395c-2.2,1.231-5.54-1.514-7.829-2.548l-25.889-11.72c-29.742-13.455-59.632-26.972-91.1-35.491a19.133,19.133,0,0,1-7.017-2.918c-1.563-1.231-2.684-2.905-4.124-4.272-3.139-2.967-7.509-4.149-11.276-6.254S224.054,662.747,224.916,658.524Z" transform="translate(-15276.966 22237.025)" fill="#464353"></path><path d="M167.561,477.084a12.743,12.743,0,0,0-2.733,4.37,206.647,206.647,0,0,0-17.358,70.933,7.091,7.091,0,0,1-.8,3.435,15.021,15.021,0,0,1-1.81,1.957,6.8,6.8,0,0,0,1.157,9.848c2.031-3.829,6.894-5.072,11.215-5.4,20.694-1.637,40.908,7.99,61.663,7.263-1.465-5.06-3.57-9.922-4.764-15.043-5.281-22.738,7.891-47.494-.185-69.395-1.613-4.383-4.309-8.691-8.556-10.612a22.782,22.782,0,0,0-5.478-1.453c-5.244-.948-15.684-5-20.756-3.373-1.871.6-2.61,2.364-4.161,3.422C172.645,474.548,169.519,475.1,167.561,477.084Z" transform="translate(-15272.547 22199.572)" fill="#EAB308"></path><rect width="274.525" height="174.81" rx="7.97" transform="translate(-15068.337 22721.465)" fill="#464353"></rect><circle cx="7.386" cy="7.386" r="7.386" transform="translate(-14939.076 22801.482)" fill="#fff"></circle><path d="M391.74,223.425c2.068-3.9-5.966-12.049-4.94-20.267s9.041-12.606,9.041-12.606-9.751-7.933-4.658-8.766,25.031,5.435,25.031,5.435-.524-6.268,9.3-5.435,29.991,8.766,29.991,8.766-6.507-8.511,2.016-8.766c12.314-.126,25.025,1.154,34.567,8.651,8.135,6.391,16.194,30.6,17.5,40.862a78.164,78.164,0,0,1-1.437,29.444l-3.345,3.181a41.039,41.039,0,0,1-2.624-8.354,39.563,39.563,0,0,0-18.938-25.692l-.182-.1c-5.611-3.158-12.418-3.012-18.852-2.78l-30.556,1.1c-7.351.265-15.268.73-21,5.341-3.871,3.114-6.191,7.712-8.4,12.163-2.848,5.748-8.413,27.428-8.413,27.428s-3.149-4.092-4.658-1.047a105.333,105.333,0,0,1-4.383-24.445,47.9,47.9,0,0,1,4.94-24.11Z" transform="translate(-15434.161 22295.652)" fill="#090814"></path></g></g></g></svg>
